<mxfile host="app.diagrams.net" modified="2023-11-22T16:54:38.602Z" agent="Mozilla/5.0 (Windows NT 10.0; Win64; x64) AppleWebKit/537.36 (KHTML, like Gecko) Chrome/119.0.0.0 Safari/537.36" etag="WiQ1pzhen7twwVgA947I" version="22.1.3" type="github">
  <diagram name="Página-1" id="lK9d12SJfRlOQlylo6OP">
    <mxGraphModel dx="1886" dy="782" grid="1" gridSize="10" guides="1" tooltips="1" connect="1" arrows="1" fold="1" page="1" pageScale="1" pageWidth="3300" pageHeight="2339" math="0" shadow="0">
      <root>
        <mxCell id="0" />
        <mxCell id="1" parent="0" />
        <mxCell id="TpF03J9tEntk0ktOjff2-1" value="Conta" style="rounded=0;whiteSpace=wrap;html=1;" vertex="1" parent="1">
          <mxGeometry x="555" y="370" width="80" height="80" as="geometry" />
        </mxCell>
        <mxCell id="TpF03J9tEntk0ktOjff2-2" value="id_conta" style="ellipse;whiteSpace=wrap;html=1;" vertex="1" parent="1">
          <mxGeometry x="1570" y="392.5" width="70" height="50" as="geometry" />
        </mxCell>
        <mxCell id="TpF03J9tEntk0ktOjff2-3" value="Efectua / Faz" style="rhombus;whiteSpace=wrap;html=1;" vertex="1" parent="1">
          <mxGeometry x="620" y="200" width="70" height="80" as="geometry" />
        </mxCell>
        <mxCell id="TpF03J9tEntk0ktOjff2-4" value="Anuncio" style="rounded=0;whiteSpace=wrap;html=1;" vertex="1" parent="1">
          <mxGeometry x="885" y="370" width="80" height="80" as="geometry" />
        </mxCell>
        <mxCell id="TpF03J9tEntk0ktOjff2-5" value="Vender" style="rhombus;whiteSpace=wrap;html=1;" vertex="1" parent="1">
          <mxGeometry x="720" y="490" width="80" height="80" as="geometry" />
        </mxCell>
        <mxCell id="TpF03J9tEntk0ktOjff2-6" value="Meio de Contacto" style="rounded=0;whiteSpace=wrap;html=1;" vertex="1" parent="1">
          <mxGeometry x="530" y="690" width="130" height="60" as="geometry" />
        </mxCell>
        <mxCell id="TpF03J9tEntk0ktOjff2-7" value="País" style="rounded=0;whiteSpace=wrap;html=1;" vertex="1" parent="1">
          <mxGeometry x="1280" y="375" width="80" height="60" as="geometry" />
        </mxCell>
        <mxCell id="TpF03J9tEntk0ktOjff2-8" value="Região" style="rounded=0;whiteSpace=wrap;html=1;" vertex="1" parent="1">
          <mxGeometry x="1280" y="455" width="80" height="60" as="geometry" />
        </mxCell>
        <mxCell id="TpF03J9tEntk0ktOjff2-9" value="Localidade" style="rounded=0;whiteSpace=wrap;html=1;" vertex="1" parent="1">
          <mxGeometry x="1280" y="535" width="80" height="60" as="geometry" />
        </mxCell>
        <mxCell id="TpF03J9tEntk0ktOjff2-10" value="nome" style="ellipse;whiteSpace=wrap;html=1;" vertex="1" parent="1">
          <mxGeometry x="1570" y="467.5" width="70" height="50" as="geometry" />
        </mxCell>
        <mxCell id="TpF03J9tEntk0ktOjff2-11" value="email" style="ellipse;whiteSpace=wrap;html=1;" vertex="1" parent="1">
          <mxGeometry x="1570" y="552.5" width="70" height="50" as="geometry" />
        </mxCell>
        <mxCell id="TpF03J9tEntk0ktOjff2-12" value="telefone" style="ellipse;whiteSpace=wrap;html=1;" vertex="1" parent="1">
          <mxGeometry x="1570" y="612.5" width="70" height="55" as="geometry" />
        </mxCell>
        <mxCell id="TpF03J9tEntk0ktOjff2-14" value="" style="endArrow=none;html=1;rounded=0;exitX=0.5;exitY=0;exitDx=0;exitDy=0;entryX=0;entryY=0.5;entryDx=0;entryDy=0;" edge="1" parent="1" source="TpF03J9tEntk0ktOjff2-3" target="TpF03J9tEntk0ktOjff2-44">
          <mxGeometry width="50" height="50" relative="1" as="geometry">
            <mxPoint x="945" y="200" as="sourcePoint" />
            <mxPoint x="800" y="360" as="targetPoint" />
          </mxGeometry>
        </mxCell>
        <mxCell id="TpF03J9tEntk0ktOjff2-15" value="" style="endArrow=none;html=1;rounded=0;exitX=1;exitY=0.5;exitDx=0;exitDy=0;entryX=0;entryY=0.5;entryDx=0;entryDy=0;" edge="1" parent="1" source="TpF03J9tEntk0ktOjff2-1" target="TpF03J9tEntk0ktOjff2-5">
          <mxGeometry width="50" height="50" relative="1" as="geometry">
            <mxPoint x="645" y="420" as="sourcePoint" />
            <mxPoint x="735" y="420" as="targetPoint" />
          </mxGeometry>
        </mxCell>
        <mxCell id="TpF03J9tEntk0ktOjff2-16" value="" style="endArrow=none;html=1;rounded=0;exitX=1;exitY=0.5;exitDx=0;exitDy=0;entryX=0;entryY=0.5;entryDx=0;entryDy=0;" edge="1" parent="1" source="TpF03J9tEntk0ktOjff2-5" target="TpF03J9tEntk0ktOjff2-4">
          <mxGeometry width="50" height="50" relative="1" as="geometry">
            <mxPoint x="810" y="530" as="sourcePoint" />
            <mxPoint x="895" y="650" as="targetPoint" />
          </mxGeometry>
        </mxCell>
        <mxCell id="TpF03J9tEntk0ktOjff2-17" value="id_anuncio" style="ellipse;whiteSpace=wrap;html=1;" vertex="1" parent="1">
          <mxGeometry x="1545" y="760" width="120" height="50" as="geometry" />
        </mxCell>
        <mxCell id="TpF03J9tEntk0ktOjff2-18" value="comentários" style="ellipse;whiteSpace=wrap;html=1;" vertex="1" parent="1">
          <mxGeometry x="1545" y="820" width="120" height="50" as="geometry" />
        </mxCell>
        <mxCell id="TpF03J9tEntk0ktOjff2-19" value="Keyword" style="rounded=0;whiteSpace=wrap;html=1;" vertex="1" parent="1">
          <mxGeometry x="890" y="690" width="80" height="60" as="geometry" />
        </mxCell>
        <mxCell id="TpF03J9tEntk0ktOjff2-20" value="Categoria" style="rounded=0;whiteSpace=wrap;html=1;" vertex="1" parent="1">
          <mxGeometry x="1055" y="80" width="80" height="60" as="geometry" />
        </mxCell>
        <mxCell id="TpF03J9tEntk0ktOjff2-21" value="Pertence" style="rhombus;whiteSpace=wrap;html=1;" vertex="1" parent="1">
          <mxGeometry x="1080" y="365" width="70" height="80" as="geometry" />
        </mxCell>
        <mxCell id="TpF03J9tEntk0ktOjff2-22" value="Tem" style="rhombus;whiteSpace=wrap;html=1;" vertex="1" parent="1">
          <mxGeometry x="890" y="530" width="70" height="80" as="geometry" />
        </mxCell>
        <mxCell id="TpF03J9tEntk0ktOjff2-23" value="" style="rhombus;whiteSpace=wrap;html=1;" vertex="1" parent="1">
          <mxGeometry x="985" y="880" width="70" height="80" as="geometry" />
        </mxCell>
        <mxCell id="TpF03J9tEntk0ktOjff2-24" value="" style="rhombus;whiteSpace=wrap;html=1;" vertex="1" parent="1">
          <mxGeometry x="1135" y="785" width="70" height="80" as="geometry" />
        </mxCell>
        <mxCell id="TpF03J9tEntk0ktOjff2-25" value="" style="rhombus;whiteSpace=wrap;html=1;" vertex="1" parent="1">
          <mxGeometry x="1145" y="900" width="70" height="80" as="geometry" />
        </mxCell>
        <mxCell id="TpF03J9tEntk0ktOjff2-27" value="" style="endArrow=none;html=1;rounded=0;exitX=0.5;exitY=1;exitDx=0;exitDy=0;" edge="1" parent="1" source="TpF03J9tEntk0ktOjff2-1">
          <mxGeometry width="50" height="50" relative="1" as="geometry">
            <mxPoint x="575" y="470" as="sourcePoint" />
            <mxPoint x="595" y="530" as="targetPoint" />
          </mxGeometry>
        </mxCell>
        <mxCell id="TpF03J9tEntk0ktOjff2-28" value="Tem" style="rhombus;whiteSpace=wrap;html=1;" vertex="1" parent="1">
          <mxGeometry x="555" y="530" width="80" height="80" as="geometry" />
        </mxCell>
        <mxCell id="TpF03J9tEntk0ktOjff2-31" value="" style="endArrow=none;html=1;rounded=0;exitX=0.5;exitY=1;exitDx=0;exitDy=0;" edge="1" parent="1" source="TpF03J9tEntk0ktOjff2-28">
          <mxGeometry width="50" height="50" relative="1" as="geometry">
            <mxPoint x="625" y="610" as="sourcePoint" />
            <mxPoint x="595" y="690" as="targetPoint" />
          </mxGeometry>
        </mxCell>
        <mxCell id="TpF03J9tEntk0ktOjff2-33" value="1" style="text;html=1;strokeColor=none;fillColor=none;align=center;verticalAlign=middle;whiteSpace=wrap;rounded=0;" vertex="1" parent="1">
          <mxGeometry x="545" y="460" width="30" height="20" as="geometry" />
        </mxCell>
        <mxCell id="TpF03J9tEntk0ktOjff2-34" value="n" style="text;html=1;strokeColor=none;fillColor=none;align=center;verticalAlign=middle;whiteSpace=wrap;rounded=0;" vertex="1" parent="1">
          <mxGeometry x="545" y="660" width="30" height="20" as="geometry" />
        </mxCell>
        <mxCell id="TpF03J9tEntk0ktOjff2-37" value="1" style="text;html=1;strokeColor=none;fillColor=none;align=center;verticalAlign=middle;whiteSpace=wrap;rounded=0;" vertex="1" parent="1">
          <mxGeometry x="665" y="425" width="30" height="20" as="geometry" />
        </mxCell>
        <mxCell id="TpF03J9tEntk0ktOjff2-38" value="n" style="text;html=1;strokeColor=none;fillColor=none;align=center;verticalAlign=middle;whiteSpace=wrap;rounded=0;" vertex="1" parent="1">
          <mxGeometry x="815" y="440" width="30" height="20" as="geometry" />
        </mxCell>
        <mxCell id="TpF03J9tEntk0ktOjff2-40" value="" style="endArrow=none;html=1;rounded=0;exitX=0.494;exitY=1;exitDx=0;exitDy=0;exitPerimeter=0;entryX=0.5;entryY=0;entryDx=0;entryDy=0;" edge="1" parent="1" source="TpF03J9tEntk0ktOjff2-4" target="TpF03J9tEntk0ktOjff2-22">
          <mxGeometry width="50" height="50" relative="1" as="geometry">
            <mxPoint x="924.5" y="455" as="sourcePoint" />
            <mxPoint x="924.5" y="535" as="targetPoint" />
          </mxGeometry>
        </mxCell>
        <mxCell id="TpF03J9tEntk0ktOjff2-41" value="" style="endArrow=none;html=1;rounded=0;exitX=0.5;exitY=1;exitDx=0;exitDy=0;entryX=0.425;entryY=0;entryDx=0;entryDy=0;entryPerimeter=0;" edge="1" parent="1" source="TpF03J9tEntk0ktOjff2-22" target="TpF03J9tEntk0ktOjff2-19">
          <mxGeometry width="50" height="50" relative="1" as="geometry">
            <mxPoint x="924.5" y="615" as="sourcePoint" />
            <mxPoint x="924.5" y="695" as="targetPoint" />
          </mxGeometry>
        </mxCell>
        <mxCell id="TpF03J9tEntk0ktOjff2-42" value="n" style="text;html=1;strokeColor=none;fillColor=none;align=center;verticalAlign=middle;whiteSpace=wrap;rounded=0;" vertex="1" parent="1">
          <mxGeometry x="940" y="460" width="30" height="20" as="geometry" />
        </mxCell>
        <mxCell id="TpF03J9tEntk0ktOjff2-43" value="n" style="text;html=1;strokeColor=none;fillColor=none;align=center;verticalAlign=middle;whiteSpace=wrap;rounded=0;" vertex="1" parent="1">
          <mxGeometry x="940" y="660" width="30" height="20" as="geometry" />
        </mxCell>
        <mxCell id="TpF03J9tEntk0ktOjff2-44" value="Compra" style="rounded=0;whiteSpace=wrap;html=1;" vertex="1" parent="1">
          <mxGeometry x="720" y="110" width="80" height="80" as="geometry" />
        </mxCell>
        <mxCell id="TpF03J9tEntk0ktOjff2-45" value="" style="endArrow=none;html=1;rounded=0;exitX=0.5;exitY=0;exitDx=0;exitDy=0;entryX=0;entryY=0.5;entryDx=0;entryDy=0;" edge="1" parent="1" source="TpF03J9tEntk0ktOjff2-1" target="TpF03J9tEntk0ktOjff2-3">
          <mxGeometry width="50" height="50" relative="1" as="geometry">
            <mxPoint x="555" y="250" as="sourcePoint" />
            <mxPoint x="685" y="330" as="targetPoint" />
          </mxGeometry>
        </mxCell>
        <mxCell id="TpF03J9tEntk0ktOjff2-46" value="Contem" style="rhombus;whiteSpace=wrap;html=1;" vertex="1" parent="1">
          <mxGeometry x="840" y="210" width="70" height="80" as="geometry" />
        </mxCell>
        <mxCell id="TpF03J9tEntk0ktOjff2-47" value="" style="endArrow=none;html=1;rounded=0;exitX=0.5;exitY=0;exitDx=0;exitDy=0;entryX=1;entryY=0.5;entryDx=0;entryDy=0;" edge="1" parent="1" source="TpF03J9tEntk0ktOjff2-4" target="TpF03J9tEntk0ktOjff2-46">
          <mxGeometry width="50" height="50" relative="1" as="geometry">
            <mxPoint x="940" y="365" as="sourcePoint" />
            <mxPoint x="965" y="235" as="targetPoint" />
          </mxGeometry>
        </mxCell>
        <mxCell id="TpF03J9tEntk0ktOjff2-48" value="" style="endArrow=none;html=1;rounded=0;exitX=1;exitY=0.5;exitDx=0;exitDy=0;entryX=0.5;entryY=0;entryDx=0;entryDy=0;" edge="1" parent="1" source="TpF03J9tEntk0ktOjff2-44" target="TpF03J9tEntk0ktOjff2-46">
          <mxGeometry width="50" height="50" relative="1" as="geometry">
            <mxPoint x="800" y="270" as="sourcePoint" />
            <mxPoint x="865" y="220" as="targetPoint" />
          </mxGeometry>
        </mxCell>
        <mxCell id="TpF03J9tEntk0ktOjff2-50" value="1" style="text;html=1;strokeColor=none;fillColor=none;align=center;verticalAlign=middle;whiteSpace=wrap;rounded=0;" vertex="1" parent="1">
          <mxGeometry x="555" y="340" width="30" height="20" as="geometry" />
        </mxCell>
        <mxCell id="TpF03J9tEntk0ktOjff2-51" value="n" style="text;html=1;strokeColor=none;fillColor=none;align=center;verticalAlign=middle;whiteSpace=wrap;rounded=0;" vertex="1" parent="1">
          <mxGeometry x="675" y="100" width="30" height="20" as="geometry" />
        </mxCell>
        <mxCell id="TpF03J9tEntk0ktOjff2-52" value="1" style="text;html=1;strokeColor=none;fillColor=none;align=center;verticalAlign=middle;whiteSpace=wrap;rounded=0;" vertex="1" parent="1">
          <mxGeometry x="800" y="190" width="30" height="20" as="geometry" />
        </mxCell>
        <mxCell id="TpF03J9tEntk0ktOjff2-53" value="1" style="text;html=1;strokeColor=none;fillColor=none;align=center;verticalAlign=middle;whiteSpace=wrap;rounded=0;" vertex="1" parent="1">
          <mxGeometry x="880" y="340" width="30" height="20" as="geometry" />
        </mxCell>
        <mxCell id="TpF03J9tEntk0ktOjff2-54" value="" style="endArrow=none;html=1;rounded=0;exitX=1;exitY=0.5;exitDx=0;exitDy=0;entryX=0;entryY=0.5;entryDx=0;entryDy=0;" edge="1" parent="1" source="TpF03J9tEntk0ktOjff2-4" target="TpF03J9tEntk0ktOjff2-21">
          <mxGeometry width="50" height="50" relative="1" as="geometry">
            <mxPoint x="1019.5" y="452.5" as="sourcePoint" />
            <mxPoint x="1019.5" y="532.5" as="targetPoint" />
          </mxGeometry>
        </mxCell>
        <mxCell id="TpF03J9tEntk0ktOjff2-55" value="" style="endArrow=none;html=1;rounded=0;exitX=1;exitY=0.5;exitDx=0;exitDy=0;entryX=0;entryY=0.5;entryDx=0;entryDy=0;" edge="1" parent="1" source="TpF03J9tEntk0ktOjff2-21" target="TpF03J9tEntk0ktOjff2-7">
          <mxGeometry width="50" height="50" relative="1" as="geometry">
            <mxPoint x="1160" y="420" as="sourcePoint" />
            <mxPoint x="1275" y="415" as="targetPoint" />
          </mxGeometry>
        </mxCell>
        <mxCell id="TpF03J9tEntk0ktOjff2-56" value="1" style="text;html=1;strokeColor=none;fillColor=none;align=center;verticalAlign=middle;whiteSpace=wrap;rounded=0;" vertex="1" parent="1">
          <mxGeometry x="1240" y="365" width="30" height="20" as="geometry" />
        </mxCell>
        <mxCell id="TpF03J9tEntk0ktOjff2-57" value="n" style="text;html=1;strokeColor=none;fillColor=none;align=center;verticalAlign=middle;whiteSpace=wrap;rounded=0;" vertex="1" parent="1">
          <mxGeometry x="970" y="372.5" width="30" height="20" as="geometry" />
        </mxCell>
        <mxCell id="TpF03J9tEntk0ktOjff2-58" value="Pertence" style="rhombus;whiteSpace=wrap;html=1;" vertex="1" parent="1">
          <mxGeometry x="1080" y="472.5" width="70" height="80" as="geometry" />
        </mxCell>
        <mxCell id="TpF03J9tEntk0ktOjff2-59" value="" style="endArrow=none;html=1;rounded=0;exitX=1;exitY=0.5;exitDx=0;exitDy=0;entryX=0;entryY=0.5;entryDx=0;entryDy=0;" edge="1" parent="1" source="TpF03J9tEntk0ktOjff2-4" target="TpF03J9tEntk0ktOjff2-58">
          <mxGeometry width="50" height="50" relative="1" as="geometry">
            <mxPoint x="975" y="420" as="sourcePoint" />
            <mxPoint x="1090" y="415" as="targetPoint" />
          </mxGeometry>
        </mxCell>
        <mxCell id="TpF03J9tEntk0ktOjff2-60" value="" style="endArrow=none;html=1;rounded=0;exitX=1;exitY=0.5;exitDx=0;exitDy=0;entryX=0;entryY=0.5;entryDx=0;entryDy=0;" edge="1" parent="1" source="TpF03J9tEntk0ktOjff2-58" target="TpF03J9tEntk0ktOjff2-8">
          <mxGeometry width="50" height="50" relative="1" as="geometry">
            <mxPoint x="1180" y="492" as="sourcePoint" />
            <mxPoint x="1310" y="492" as="targetPoint" />
          </mxGeometry>
        </mxCell>
        <mxCell id="TpF03J9tEntk0ktOjff2-61" value="n" style="text;html=1;strokeColor=none;fillColor=none;align=center;verticalAlign=middle;whiteSpace=wrap;rounded=0;" vertex="1" parent="1">
          <mxGeometry x="1000" y="422.5" width="30" height="20" as="geometry" />
        </mxCell>
        <mxCell id="TpF03J9tEntk0ktOjff2-62" value="1" style="text;html=1;strokeColor=none;fillColor=none;align=center;verticalAlign=middle;whiteSpace=wrap;rounded=0;" vertex="1" parent="1">
          <mxGeometry x="1240" y="455" width="30" height="20" as="geometry" />
        </mxCell>
        <mxCell id="TpF03J9tEntk0ktOjff2-63" value="Pertence" style="rhombus;whiteSpace=wrap;html=1;" vertex="1" parent="1">
          <mxGeometry x="1055" y="560" width="70" height="80" as="geometry" />
        </mxCell>
        <mxCell id="TpF03J9tEntk0ktOjff2-64" value="" style="endArrow=none;html=1;rounded=0;exitX=1;exitY=0.5;exitDx=0;exitDy=0;entryX=0;entryY=0.5;entryDx=0;entryDy=0;" edge="1" parent="1" source="TpF03J9tEntk0ktOjff2-4" target="TpF03J9tEntk0ktOjff2-63">
          <mxGeometry width="50" height="50" relative="1" as="geometry">
            <mxPoint x="980" y="472.5" as="sourcePoint" />
            <mxPoint x="1095" y="575.5" as="targetPoint" />
          </mxGeometry>
        </mxCell>
        <mxCell id="TpF03J9tEntk0ktOjff2-65" value="" style="endArrow=none;html=1;rounded=0;exitX=1;exitY=0.5;exitDx=0;exitDy=0;entryX=0;entryY=0.5;entryDx=0;entryDy=0;" edge="1" parent="1" source="TpF03J9tEntk0ktOjff2-63" target="TpF03J9tEntk0ktOjff2-9">
          <mxGeometry width="50" height="50" relative="1" as="geometry">
            <mxPoint x="1140" y="591.5" as="sourcePoint" />
            <mxPoint x="1270" y="563.5" as="targetPoint" />
          </mxGeometry>
        </mxCell>
        <mxCell id="TpF03J9tEntk0ktOjff2-66" value="n" style="text;html=1;strokeColor=none;fillColor=none;align=center;verticalAlign=middle;whiteSpace=wrap;rounded=0;" vertex="1" parent="1">
          <mxGeometry x="1010" y="490" width="30" height="20" as="geometry" />
        </mxCell>
        <mxCell id="TpF03J9tEntk0ktOjff2-67" value="1" style="text;html=1;strokeColor=none;fillColor=none;align=center;verticalAlign=middle;whiteSpace=wrap;rounded=0;" vertex="1" parent="1">
          <mxGeometry x="1240" y="540" width="30" height="20" as="geometry" />
        </mxCell>
        <mxCell id="TpF03J9tEntk0ktOjff2-68" value="Tem" style="rhombus;whiteSpace=wrap;html=1;" vertex="1" parent="1">
          <mxGeometry x="990" y="210" width="70" height="80" as="geometry" />
        </mxCell>
        <mxCell id="TpF03J9tEntk0ktOjff2-69" value="" style="endArrow=none;html=1;rounded=0;exitX=0.5;exitY=1;exitDx=0;exitDy=0;entryX=0.5;entryY=0;entryDx=0;entryDy=0;" edge="1" parent="1" source="TpF03J9tEntk0ktOjff2-20" target="TpF03J9tEntk0ktOjff2-68">
          <mxGeometry width="50" height="50" relative="1" as="geometry">
            <mxPoint x="1090" y="160" as="sourcePoint" />
            <mxPoint x="1165" y="220" as="targetPoint" />
          </mxGeometry>
        </mxCell>
        <mxCell id="TpF03J9tEntk0ktOjff2-70" value="" style="endArrow=none;html=1;rounded=0;exitX=0.5;exitY=1;exitDx=0;exitDy=0;entryX=0.5;entryY=0;entryDx=0;entryDy=0;" edge="1" parent="1" source="TpF03J9tEntk0ktOjff2-68" target="TpF03J9tEntk0ktOjff2-4">
          <mxGeometry width="50" height="50" relative="1" as="geometry">
            <mxPoint x="1080" y="295" as="sourcePoint" />
            <mxPoint x="1010" y="365" as="targetPoint" />
          </mxGeometry>
        </mxCell>
        <mxCell id="TpF03J9tEntk0ktOjff2-71" value="n" style="text;html=1;strokeColor=none;fillColor=none;align=center;verticalAlign=middle;whiteSpace=wrap;rounded=0;" vertex="1" parent="1">
          <mxGeometry x="940" y="320" width="30" height="20" as="geometry" />
        </mxCell>
        <mxCell id="TpF03J9tEntk0ktOjff2-72" value="1" style="text;html=1;strokeColor=none;fillColor=none;align=center;verticalAlign=middle;whiteSpace=wrap;rounded=0;" vertex="1" parent="1">
          <mxGeometry x="1030" y="150" width="30" height="20" as="geometry" />
        </mxCell>
      </root>
    </mxGraphModel>
  </diagram>
</mxfile>
